<?xml version="1.0" encoding="utf-8"?>
<!-- Generator: Adobe Illustrator 27.6.1, SVG Export Plug-In . SVG Version: 6.00 Build 0)  -->
<svg version="1.1" xmlns="http://www.w3.org/2000/svg" xmlns:xlink="http://www.w3.org/1999/xlink" x="0px" y="0px"
	 viewBox="0 0 715.6 758.5" style="enable-background:new 0 0 715.6 758.5;" xml:space="preserve">
<style type="text/css">
	.st0{fill:#E69D81;}
	.st1{fill:#CE7C64;}
	.st2{fill:#B7676C;}
	.st3{fill:#DC927A;}
	.st4{fill:#C97C68;}
	.st5{fill:#3F2A1B;}
	.st6{fill:none;stroke:#3C3C3B;stroke-width:4;stroke-miterlimit:10;}
	.st7{fill:#E2D6D3;}
	.st8{fill:#D47F67;}
	.st9{fill:#AC7862;}
	.st10{fill:#895A47;}
	.st11{fill:none;stroke:#8C6250;stroke-width:2;stroke-miterlimit:10;}
	.st12{fill:#6E4131;}
	.st13{fill:none;stroke:#8C6250;stroke-width:8;stroke-miterlimit:10;}
</style>
<g id="Livello_1">
	<g id="Livello_1_00000070818321452681901710000013761052550348698772_">
		<path class="st0" d="M348.9,342.2L348.9,342.2c30.5,0,55.2,24.7,55.2,55.2v131.1c0,30.5-24.7,55.2-55.2,55.2l0,0
			c-30.5,0-55.2-24.7-55.2-55.2V397.4C293.7,366.9,318.4,342.2,348.9,342.2z"/>
		<path class="st1" d="M348.9,340.8L348.9,340.8c-30.5,0-55.2,24.7-55.2,55.2v71.4c14.7,7.7,26.9,20,45,22.8h18
			c16.8-2.9,32.5-16.2,47.4-24.1v-70.2C404.1,365.5,379.3,340.7,348.9,340.8L348.9,340.8z"/>
		<path class="st2" d="M244.2,333h211.3c15.3,0,27.7,12.4,27.7,27.7v0c0,15.3-12.4,27.7-27.7,27.7H244.2
			c-15.3,0-27.7-12.4-27.7-27.7v0C216.5,345.4,228.9,333,244.2,333z"/>
		<path class="st3" d="M326.1,183.1h47.6c48.6,0,88.1,39.4,88.1,88v79.8c0,58.6-47.5,106.1-106.1,106.1h-11.5
			c-58.6,0-106.1-47.5-106.1-106.1v-79.8C238.1,222.6,277.5,183.1,326.1,183.1L326.1,183.1z"/>
		<path class="st0" d="M330.1,183.1h39.3c48.6,0,88,39.4,88,88v63c0,58.6-47.5,106.1-106.1,106.1h-3.1
			c-58.6,0-106.1-47.5-106.1-106.1v-63C242.1,222.6,281.5,183.1,330.1,183.1L330.1,183.1z"/>
		<path class="st4" d="M251.7,277.1l43.6-2.1c51.5-2.5,90.7-58.3,87.5-124.7l-0.1-2.7c-0.4-8.8-6.3-15.7-13.1-15.4l-36.4,1.7
			c-47.9,2.3-106.7,55.3-103.8,117l0,0C230.1,266,240.1,277.7,251.7,277.1L251.7,277.1z"/>
		<path class="st4" d="M458.2,258.3L458.2,258.3c5.8,0.9,11.2-3.1,12-8.9l1.1-7.6c6.6-44.7-24.2-86.3-68.9-93l-16.1-2.4
			c-4.4-0.7-8.6,2.4-9.2,6.8l-3.2,21.2C368.2,213,416.5,249.5,458.2,258.3z"/>
		<path class="st5" d="M244.5,265.5l45.8-2.2c54.1-2.6,95.6-56,92.6-119.4l-0.1-2.6c-0.4-8.4-6.5-14.9-13.7-14.6l-38.2,1.8
			c-50.4,2.4-112.4,53.2-109.6,112.2l0,0C221.9,255,232.3,266.1,244.5,265.5L244.5,265.5z"/>
		<path class="st5" d="M454.9,250.1l10.7,1.6c5.8,0.9,11.2-3.1,12-8.9l0,0c7.3-48.9-26.5-94.4-75.4-101.7l-12.9-1.9
			c-4.4-0.7-8.6,2.4-9.2,6.8l-3.2,21.2C371.2,205.8,417.2,238.7,454.9,250.1L454.9,250.1z"/>
		<path class="st4" d="M381.8,273.2h33.5c4.9,0,8.9,4,8.9,8.9v0c0,4.9-4,8.9-8.9,8.9h-33.5c-4.9,0-8.9-4-8.9-8.9v0
			C372.9,277.2,376.9,273.2,381.8,273.2z"/>
		<path class="st4" d="M279.4,278.4H313c4.9,0,8.9,4,8.9,8.9v0c0,4.9-4,8.9-8.9,8.9h-33.5c-4.9,0-8.9-4-8.9-8.9v0
			C270.5,282.4,274.5,278.4,279.4,278.4z"/>
		<path class="st5" d="M382.4,262.8h33.5c4.9,0,8.9,4,8.9,8.9v0c0,4.9-4,8.9-8.9,8.9h-33.5c-4.9,0-8.9-4-8.9-8.9v0
			C373.5,266.8,377.5,262.8,382.4,262.8z"/>
		<circle class="st5" cx="304.8" cy="306.8" r="5.5"/>
		<path class="st5" d="M279.4,268H313c4.9,0,8.9,4,8.9,8.9v0c0,4.9-4,8.9-8.9,8.9h-33.5c-4.9,0-8.9-4-8.9-8.9v0
			C270.5,272,274.5,268,279.4,268z"/>
		<path class="st6" d="M446,300c11.6,21.5-1.6,50.1-20.7,59.7c-1.3,0.7-8.3,4.1-18,3.8c-20.7-0.7-40.7-17.9-44.2-39.3
			c-0.5-3-2.8-17,5.9-29.3c11.1-15.7,30.9-16,35.2-16.1C406.6,278.7,434.5,278.7,446,300z"/>
		<path class="st6" d="M251.4,298.2c-11.6,21.5,1.6,50.1,20.7,59.7c1.3,0.7,8.3,4.1,18,3.8c20.7-0.7,40.7-17.9,44.2-39.3
			c0.5-3,2.8-17-5.9-29.3c-11.1-15.7-30.9-16-35.2-16.1C290.7,276.9,262.8,276.9,251.4,298.2z"/>
		<path class="st5" d="M464.3,295.6L464.3,295.6c-4.7,0-8.5-3.8-8.5-8.5v-48.6c0-4.7,3.8-8.5,8.5-8.5l0,0c4.7,0,8.5,3.8,8.5,8.5
			v48.6C472.8,291.8,469,295.6,464.3,295.6z"/>
		<path class="st5" d="M237.3,296.1L237.3,296.1c-5.5,0-10-4.5-10-10v-46.7c0-5.5,4.5-10,10-10h0c5.5,0,10,4.5,10,10v46.7
			C247.3,291.7,242.8,296.1,237.3,296.1z"/>
		<path class="st6" d="M363.1,309.8c-0.6-1-1.7-2.5-3.9-3.8c-5.2-3.2-13.5-4.1-19.2-1c-1.1,0.6-4.1,2.4-5.4,5.2"/>
		<circle class="st5" cx="393.7" cy="306.8" r="5.5"/>
		<path class="st7" d="M388.6,388.4c3.1,7-16.6,29.8-39.8,29.8c-23.2,0-42.9-22.9-39.8-29.8c1.6-3.7,9-1.4,39-1.3
			C379.2,387,387,384.6,388.6,388.4z"/>
		<path class="st8" d="M368.7,361.2c0,3.2-1.3,6.1-3.4,8.2c-2.1,2.1-5,3.4-8.2,3.4h-15.9c-6.6,0-12.3-5.4-12.2-12
			c0.1-3.1,1.4-5.9,3.4-7.9c0.5-0.5,1-1,1.6-1.4c1.8-1.2,3.3-2.8,4.4-4.7c2-3.6,5.9-6.1,10.4-6.1s8.3,2.5,10.4,6.1
			c1.1,2,2.7,3.5,4.5,4.8C366.8,353.8,368.7,357.3,368.7,361.2z"/>
	</g>
	<g id="Livello_4">
		<path class="st9" d="M312.9,618.7c11.6,1.6,23.5,2.5,35.6,2.5c55.4,0,106.8-17.5,148.8-47.3l-67.8-43.6l-23.2,42.6l-55.9-10.2
			L312.9,618.7L312.9,618.7z"/>
		<path class="st9" d="M348.5,621.2c13,0,25.7-1,38.2-2.8l-36.3-55.7l-57.9,10.2l-23.2-42.6l-68.7,44.2
			C242.4,603.9,293.4,621.2,348.5,621.2L348.5,621.2z"/>
		<path class="st10" d="M374.3,598.7l-24-36c7.6-1.4,23.5,5.2,39.5-8.8c17.4-15.2,23.6-33.3,25.6-40.6c6.8,7.5,13.1,16.2,21.1,21.5
			c-1.7,7.4-7.5,26-23.3,41.7C398.2,591.5,381.7,596.8,374.3,598.7L374.3,598.7z"/>
		<path class="st10" d="M322.2,598.7l29.5-36c-7.6-1.4-29,5.2-45-8.8c-17.4-15.2-19.3-26-21.4-33.4c-6.8,7.5-16.3,10-24.5,16
			c1.7,7.4,6.7,24.2,22.5,40C298.2,591.5,314.7,596.8,322.2,598.7z"/>
		<path class="st9" d="M323.2,587.9l27.2-25.2c-7.6-1.4-26.7-5.5-42.7-19.5c-17.4-15.2-23.6-33.3-25.6-40.7
			c-6.8,7.5-13.6,15-20.4,22.5c1.7,7.4,6.9,25.1,22.7,40.8C299.2,580.7,315.7,586,323.2,587.9L323.2,587.9z"/>
		<path class="st9" d="M376.6,587.9l-26.3-25.2c7.6-1.4,25.8-5.5,41.8-19.5c17.4-15.2,23.6-33.3,25.6-40.7
			c6.8,7.5,13.6,15,20.5,22.5c-1.7,7.4-6.9,25.1-22.7,40.8C400.5,580.7,384,586,376.6,587.9L376.6,587.9z"/>
		<line class="st11" x1="351.8" y1="575" x2="351.8" y2="615.2"/>
		<circle class="st12" cx="348.7" cy="578" r="5.6"/>
	</g>
</g>
<g id="Livello_2">
	<circle class="st13" cx="348.7" cy="364.4" r="256.8"/>
</g>
</svg>
